<?xml version="1.0" encoding="UTF-8"?>
<!DOCTYPE svg PUBLIC "-//W3C//DTD SVG 1.1//EN" "http://www.w3.org/Graphics/SVG/1.1/DTD/svg11.dtd">
<!-- Creator: CorelDRAW 2017 -->
<svg xmlns="http://www.w3.org/2000/svg" xml:space="preserve" width="67.2036mm" height="48.6824mm" version="1.1" style="shape-rendering:geometricPrecision; text-rendering:geometricPrecision; image-rendering:optimizeQuality; fill-rule:evenodd; clip-rule:evenodd"
viewBox="0 0 6720 4868"
 xmlns:xlink="http://www.w3.org/1999/xlink">
 <defs>
  <style type="text/css">
   <![CDATA[
    .fil0 {fill:#444F51;fill-rule:nonzero}
    .fil1 {fill:#D81E05;fill-rule:nonzero}
   ]]>
  </style>
 </defs>
 <g id="Warstwa_x0020_1">
  <metadata id="CorelCorpID_0Corel-Layer"/>
  <polygon class="fil0" points="1065,104 1180,104 1180,218 1296,218 1296,105 1411,105 1411,218 1528,218 1528,104 1642,104 1642,219 1528,219 1528,334 1180,334 1180,219 1065,219 "/>
  <polygon class="fil0" points="5130,103 5245,103 5245,217 5361,217 5361,104 5475,104 5475,217 5592,217 5592,103 5706,104 5706,218 5592,218 5592,333 5244,333 5244,218 5130,218 "/>
  <path class="fil1" d="M3718 337l-667 0 -3 641c0,182 151,330 336,330 185,0 336,-148 336,-330l0 -641 -2 0zm-222 808l-70 0 0 70 -82 0 0 -70 -70 0 0 -82 70 0 0 -70 82 0 0 70 70 0 0 82zm0 -304l-70 0 0 70 -82 0 0 -70 -70 0 0 -82 70 0 0 -70 82 0 0 70 70 0 0 82zm115 -327l-90 0 0 91 -273 0 0 -91 -89 0 0 -89 90 0 0 89 91 0 0 -89 90 0 0 89 91 0 0 -89 90 0 0 89z"/>
  <path class="fil1" d="M3512 1829c0,-44 0,-83 0,-127 -63,0 -199,0 -262,0 0,44 0,83 0,127 63,0 199,0 262,0z"/>
  <path class="fil1" d="M3726 1803l-116 0 0 126 -459 0 0 -121 -116 1 0 131c1,1 345,345 345,345l346 -343 0 -138z"/>
  <path class="fil1" d="M3726 1228l-4 5c-82,105 -205,165 -338,165 -135,0 -264,-65 -345,-173l-5 -7 1 491 112 -1 1 -108 461 -1 0 103 116 0 0 -475z"/>
  <path class="fil1" d="M3727 2370c-2,2 -342,342 -345,345 -4,-3 -346,-346 -346,-346l0 170c1,2 345,332 345,332 4,0 346,-330 346,-330l1 -171z"/>
  <path class="fil1" d="M3727 2078l-347 347 -345 -349 0 154c1,2 345,345 345,345l347 -343 1 -155z"/>
  <path class="fil0" d="M5509 758l120 -119 -203 65 19 51c9,27 23,70 32,98l-148 0c12,-36 31,-94 39,-117l12 -32 -203 -65 120 119 -47 140 100 74 -86 46 58 88 161 0 58 -88 -86 -46 99 -74 -46 -141zm-106 178c-8,-5 -19,-14 -30,-22l61 0c-11,8 -22,16 -30,22zm-53 104c22,-12 39,-21 53,-29 13,7 31,16 53,29 -2,3 -3,4 -4,7 -21,0 -75,0 -96,0 -2,-3 -2,-3 -4,-7z"/>
  <path class="fil0" d="M4275 1557c-10,49 21,97 69,108 49,10 97,-21 108,-69 5,-24 1,-48 -12,-69 -5,-8 -12,-15 -20,-21 29,-18 68,-41 89,-54 28,46 100,164 100,164 0,0 147,-91 166,-103 8,0 127,0 151,0 -30,52 -293,482 -312,513 -34,-1 -154,-6 -154,-6l4 338c-33,-13 -71,-5 -97,21 -17,18 -26,40 -26,64 0,25 10,47 27,65 36,35 93,33 128,-2 17,-17 26,-40 26,-65 0,-11 -3,-22 -7,-32l332 3c0,0 1,-104 2,-148 54,1 191,2 191,2 0,0 1,-144 1,-183 11,-6 52,-26 107,-53 42,15 125,46 209,76l-169 51c0,0 0,447 0,525 -39,0 -73,0 -93,0 -13,-13 -59,-59 -94,-94 27,-15 46,-44 46,-78 0,-50 -41,-91 -91,-91 -50,0 -91,41 -91,91 0,35 20,65 49,80l-187 187c-15,-30 -45,-50 -81,-50 -50,0 -91,41 -91,91 0,50 41,91 91,91 35,0 66,-21 81,-50l189 189c-30,15 -50,46 -50,81 0,50 41,91 91,91 50,0 91,-41 91,-91 0,-37 -22,-69 -54,-83 31,-31 72,-72 94,-94 22,23 65,65 97,97 -28,15 -47,45 -47,80 0,50 41,91 91,91 50,0 91,-41 91,-91 0,-36 -21,-66 -51,-81 30,-30 66,-66 77,-77 34,0 350,-1 350,-1l1 -213c117,40 313,107 351,120 0,43 0,155 0,212 -35,0 -60,0 -79,0 -12,-12 -56,-55 -89,-89 25,-16 42,-44 42,-76 0,-50 -41,-91 -91,-91 -50,0 -91,41 -91,91 0,36 21,66 51,81l-187 189c-14,-32 -46,-54 -83,-54 -50,0 -91,41 -91,91 0,50 41,91 91,91 37,0 68,-23 83,-54l191 190c-32,14 -55,46 -55,83 0,50 41,91 91,91 50,0 91,-41 91,-91 0,-33 -19,-63 -46,-78 31,-32 74,-75 96,-97 21,21 62,61 93,93 -31,14 -53,46 -53,82 0,50 41,91 91,91 50,0 91,-41 91,-91 0,-33 -18,-62 -45,-77 33,-33 77,-76 90,-89 34,0 308,-1 308,-1l0 -126 46 0 0 -71 -46 0 0 -71 46 0 0 -71 -46 0 0 -70 46 0 0 -71 -46 0 0 -71 46 0 0 -71 -46 0 0 -84c0,0 -326,-116 -410,-147l358 -620c0,0 -30,-113 -63,-239l116 -162c19,1 38,-3 54,-14 20,-13 34,-33 39,-57 5,-24 1,-48 -12,-69 -13,-20 -33,-35 -57,-40 -24,-5 -48,-1 -68,12 -21,13 -35,33 -40,57 -1,7 -2,13 -2,19 0,13 3,25 8,36l-70 98c-28,-105 -52,-196 -56,-211 17,-24 105,-148 148,-207 44,3 86,-26 95,-71 5,-24 1,-48 -12,-68 -13,-20 -33,-35 -57,-40 -24,-5 -48,-1 -69,13 -20,13 -34,33 -39,57 -2,7 -2,13 -2,20 0,12 3,23 8,34l-174 243c0,0 142,539 151,574 -8,14 -80,138 -157,272l-32 -40 138 -240c0,0 -182,-681 -193,-722 20,-28 233,-322 304,-419 19,1 37,-3 53,-14 20,-13 34,-33 40,-57 11,-49 -20,-97 -70,-108 -49,-10 -97,21 -108,70 -4,20 -1,39 6,56l-329 453c0,0 26,97 59,219l-46 13 19 69 46 -13c6,22 12,46 18,69l-46 12 19 69 46 -12c6,22 12,45 18,67l-45 13 19 69 45 -13c7,25 13,48 18,69l-45 12 19 69 45 -12c4,15 7,26 8,30 -11,19 -63,110 -100,173l-274 -347c64,-1 155,-1 155,-1 0,0 -121,-201 -162,-270 35,0 131,0 131,0 0,0 -78,-135 -110,-190 16,0 98,0 98,0 0,0 -97,-160 -135,-221 17,0 99,0 99,0 0,0 -112,-187 -153,-255 20,1 115,4 115,4l-247 -342 -474 0 -258 341c0,0 90,0 106,0 -36,66 -141,257 -141,257 0,0 78,0 93,0 -16,29 -44,80 -68,125l0 -1c0,0 -272,0 -317,0 -15,-24 -45,-72 -58,-92 8,-3 15,-5 23,-10 20,-13 35,-33 40,-58 10,-49 -21,-97 -69,-108 -23,-5 -48,-1 -68,12 -21,13 -35,33 -40,58 -1,6 -2,13 -2,19 0,17 5,34 15,49 5,8 12,14 19,20l-273 175 174 284c-39,3 -73,31 -81,71zm2145 -911c0,-3 0,-5 1,-8 4,-19 23,-32 42,-28 19,4 32,24 28,43 -4,19 -23,31 -42,27 -17,-4 -28,-19 -28,-35zm43 380c2,-9 8,-17 16,-23 8,-5 18,-7 27,-5 9,2 18,8 23,16 5,8 7,18 5,27 -4,19 -23,31 -43,27l0 0c-9,-2 -17,-8 -23,-16 -5,-8 -7,-17 -5,-27zm54 374c2,-9 8,-17 16,-23 8,-5 18,-7 27,-4 10,2 18,8 23,15 5,8 7,18 5,27 -2,9 -8,18 -16,23 -8,5 -18,7 -27,5l0 0c-20,-4 -32,-23 -28,-43zm-960 1828c0,20 -16,36 -36,36 -20,0 -36,-16 -36,-36 0,-20 16,-36 36,-36 20,0 36,16 36,36zm-874 -413c0,20 -16,36 -36,36 -20,0 -36,-16 -36,-36 0,-20 16,-36 36,-36 20,0 36,16 36,36zm-216 -374c0,9 -4,18 -10,25 -14,14 -37,14 -51,1 -7,-7 -11,-16 -11,-25 0,-10 4,-19 10,-26 14,-14 37,-14 51,-1 7,7 11,15 11,25 0,0 0,0 0,1zm65 -1453c-8,5 -18,7 -27,5l0 0c-9,-2 -17,-8 -23,-15 -5,-8 -7,-18 -5,-27 2,-10 8,-18 16,-23 8,-5 18,-7 27,-4 19,4 32,23 27,42 -2,9 -8,18 -16,23zm1271 360c-32,-56 -61,-106 -76,-132 18,0 42,0 64,0 25,43 58,100 76,132 -14,0 -39,0 -64,0zm-37 272c0,0 -22,40 -41,75l-275 -484 -34 -60 -116 249c-99,-175 -210,-373 -228,-404l30 -55c0,0 -78,0 -93,0 36,-66 141,-257 141,-257 0,0 -75,0 -83,0 50,-66 136,-179 151,-199 31,0 370,0 402,0 15,20 92,128 141,195 -15,-1 -101,-4 -101,-4 0,0 116,192 156,260 -17,0 -100,0 -100,0 0,0 86,141 128,209l-240 0 274 474c-49,1 -111,1 -111,1zm-344 -313c41,72 178,313 239,420 -68,-15 -184,-42 -204,-47 -5,-9 -54,-95 -115,-204 17,-36 55,-117 79,-170zm645 2232c0,-19 16,-36 36,-36 20,0 36,16 36,36 0,20 -16,36 -36,36 -20,0 -36,-16 -36,-36zm-272 0c0,-19 16,-36 36,-36 20,0 36,16 36,36 0,20 -16,36 -36,36 -20,0 -36,-16 -36,-36zm72 -617c0,18 -13,31 -29,35 -2,1 -5,2 -7,2 -20,0 -36,-16 -36,-36 0,-20 16,-36 36,-36 20,0 36,16 36,36zm-674 206c0,-20 16,-36 36,-36 20,0 36,16 36,36 0,20 -16,36 -36,36 -20,0 -36,-16 -36,-36zm-272 0c0,-20 16,-36 36,-36 20,0 36,16 36,36 0,20 -16,36 -36,36 -20,0 -36,-16 -36,-36zm71 -619c0,20 -16,36 -36,36 -20,0 -36,-16 -36,-36 0,-20 16,-36 36,-36 20,0 36,16 36,36zm450 -331l154 241 -43 0 0 71 50 0c0,20 0,44 0,70l-49 0 0 71 49 0c0,24 0,48 0,71l-49 0 0 71 49 0c0,44 0,81 0,100 -69,0 -295,1 -295,1 0,0 -51,51 -81,80 -38,-38 -138,-138 -138,-138 0,0 -96,96 -133,133 -37,-37 -96,-96 -134,-133 38,-38 101,-100 138,-138 34,34 97,97 97,97l227 0c0,0 0,-488 0,-550 29,-9 100,-30 159,-48zm74 -15c44,16 77,28 90,33 0,15 0,55 0,109l-90 -142zm-251 -193c24,-12 49,-24 73,-37l20 43 64 -31 -21 -43c22,-10 43,-21 64,-31l21 44 64 -31 -22 -45c41,-21 74,-37 92,-47l117 27c0,0 23,-43 44,-80 97,123 372,470 402,508 -2,3 -3,5 -5,8 -37,64 -185,316 -185,316 0,0 402,143 456,162 0,13 0,46 0,88l-48 0 0 71 48 0c0,23 0,47 0,71l-48 0 0 71 48 0c0,24 0,47 0,70l-48 0 0 71 48 0c0,47 0,85 0,103 -65,0 -252,1 -252,1 0,0 -57,57 -90,88 -38,-38 -137,-137 -137,-137 0,0 -97,98 -135,136 -38,-38 -99,-99 -137,-137 38,-37 100,-100 137,-138 33,32 91,91 91,91l213 0 0 -374c0,0 -385,-132 -441,-150 0,-59 0,-528 0,-528l-436 -160zm-7 -224l1 -1 -47 -86 -3 -7 0 0 -123 -226 -144 0c40,-80 131,-262 131,-262 0,0 -76,-1 -92,-1 18,-33 28,-52 51,-93 65,115 380,673 380,673l66 15 -168 84 -51 -97zm-241 -248c11,0 20,0 26,0 9,16 48,88 84,155 -65,1 -154,1 -202,1 21,-36 62,-106 91,-156zm149 226c13,24 60,113 80,150l-299 149c0,0 -1,98 -1,146 -54,-1 -191,-2 -191,-2 0,0 -1,105 -2,149 -53,0 -143,-1 -196,-2 -1,-52 -1,-140 -2,-195 39,2 110,4 110,4l249 -397c98,-1 229,-2 252,-2zm-752 -324c-28,-46 -75,-122 -102,-167 45,-29 121,-77 166,-106 23,37 66,106 66,106l318 0c0,1 79,2 97,2 -19,37 -59,119 -92,184l-119 0c0,0 -67,42 -108,67 -28,-46 -99,-163 -99,-163 0,0 -90,54 -127,77zm-85 170c4,-19 24,-31 43,-27 9,2 17,8 23,16 4,5 6,12 6,19 0,3 0,5 -1,8 -4,19 -23,32 -43,27 -19,-4 -32,-23 -27,-43z"/>
  <path class="fil0" d="M3006 4696l-201 0 0 -33 74 0 0 -220 -74 0 0 -31c28,0 49,-3 62,-10 13,-6 21,-19 23,-36l43 0 0 297 73 0 0 33z"/>
  <path class="fil0" d="M3077 4473c0,-17 3,-33 10,-47 7,-14 16,-26 29,-37 11,-10 25,-17 42,-23 17,-6 33,-9 50,-9 19,0 36,3 52,8 15,5 29,13 40,22 14,12 25,28 33,48 8,20 12,44 12,75 0,27 -4,53 -12,78 -8,25 -19,45 -34,61 -16,17 -35,30 -57,40 -22,9 -50,14 -83,14 -7,0 -15,-1 -24,-1 -8,-1 -16,-2 -23,-4l0 -43 3 0c5,2 12,4 22,6 10,2 20,3 30,3 36,0 65,-10 85,-29 21,-19 32,-47 35,-83 -15,8 -29,14 -42,18 -13,4 -28,5 -44,5 -15,0 -29,-1 -42,-4 -13,-3 -25,-8 -38,-15 -15,-9 -26,-20 -34,-35 -8,-14 -11,-30 -11,-49zm212 28c0,-23 -3,-41 -8,-55 -5,-14 -12,-25 -21,-33 -8,-7 -16,-12 -25,-14 -8,-3 -17,-4 -27,-4 -23,0 -41,7 -54,20 -14,13 -20,32 -20,57 0,14 2,25 7,35 4,9 12,17 22,23 7,5 15,8 24,9 9,2 18,3 29,3 12,0 25,-2 38,-5 14,-3 26,-8 36,-13 0,-2 0,-5 1,-9 0,-3 0,-8 0,-12z"/>
  <path class="fil0" d="M3656 4591c0,16 -3,31 -10,44 -6,13 -15,25 -27,35 -12,10 -26,18 -43,24 -17,6 -37,9 -58,9 -20,0 -39,-2 -58,-5 -19,-3 -36,-8 -50,-14l0 -47 4 0c4,3 10,5 18,9 8,3 17,6 26,9 11,3 21,5 30,7 9,2 19,3 31,3 11,0 22,-2 32,-5 11,-3 20,-8 27,-15 7,-7 12,-14 16,-23 4,-9 5,-19 5,-31 0,-12 -2,-21 -6,-29 -4,-8 -10,-14 -17,-19 -8,-5 -18,-10 -29,-12 -12,-2 -24,-3 -39,-3 -15,0 -30,1 -45,3 -15,2 -27,3 -36,5l0 -169 227 0 0 38 -174 0 0 88c7,-1 13,-1 20,-1 7,-1 13,-1 18,-1 21,0 39,2 54,4 15,3 29,8 42,16 14,9 24,19 32,31 7,13 11,29 11,49z"/>
  <path class="fil0" d="M3956 4696l-201 0 0 -33 74 0 0 -220 -74 0 0 -31c28,0 49,-3 62,-10 13,-6 21,-19 23,-36l43 0 0 297 73 0 0 33z"/>
  <path class="fil0" d="M1219 898l99 74 -86 46 58 88 160 0 58 -88 -86 -46 100 -74 -47 -140 120 -119 -203 65 12 32c8,23 27,81 39,117l-148 0c9,-29 23,-71 32,-98l19 -51 -203 -65 120 119 -46 141zm121 15l61 0c-11,8 -22,16 -30,22 -8,-5 -19,-14 -30,-22zm78 133c-21,0 -75,0 -96,0 -2,-3 -2,-3 -4,-7 22,-12 39,-21 53,-29 13,7 31,16 53,29 -2,3 -3,4 -4,7z"/>
  <path class="fil0" d="M2417 1487l174 -284 -273 -175c7,-6 13,-13 19,-20 10,-15 15,-32 15,-49 0,-7 -1,-13 -2,-19 -5,-24 -20,-44 -40,-58 -20,-13 -45,-18 -68,-12 -48,10 -80,59 -69,108 5,24 19,44 40,58 7,4 15,7 23,10 -13,20 -43,69 -58,92 -45,0 -317,0 -317,0l0 1c-25,-46 -53,-97 -68,-125 15,0 93,0 93,0 0,0 -104,-190 -141,-257 16,0 106,0 106,0l-258 -341 -474 0 -247 342c0,0 95,-3 115,-4 -41,69 -153,255 -153,255 0,0 82,0 99,0 -38,61 -135,221 -135,221 0,0 82,0 98,0 -32,55 -110,190 -110,190 0,0 96,0 131,0 -42,69 -162,270 -162,270 0,0 91,1 155,1l-275 347c-36,-63 -89,-154 -99,-173 1,-4 4,-14 8,-30l45 12 19 -69 -45 -12c6,-21 12,-44 18,-69l45 13 19 -69 -45 -13c6,-22 12,-44 18,-67l46 12 19 -69 -46 -12c6,-24 12,-47 18,-69l46 13 19 -69 -46 -13c33,-122 59,-219 59,-219l-328 -453c8,-17 10,-36 6,-56 -11,-49 -59,-80 -108,-70 -49,11 -80,59 -69,108 5,24 19,44 39,57 16,10 35,15 53,14 70,97 283,391 304,419 -11,41 -193,722 -193,722l138 240 -32 40c-77,-133 -149,-257 -157,-272 9,-35 151,-574 151,-574l-174 -243c5,-11 8,-23 8,-34 0,-7 -1,-13 -2,-20 -5,-24 -19,-44 -39,-57 -20,-13 -45,-18 -69,-13 -24,5 -44,20 -57,40 -13,20 -17,44 -12,68 10,44 51,74 95,71 42,59 131,183 148,207 -4,15 -28,106 -56,211l-70 -98c5,-11 8,-24 8,-36 0,-6 -1,-13 -2,-19 -5,-24 -19,-44 -40,-57 -20,-13 -45,-17 -68,-12 -24,5 -44,19 -57,40 -13,21 -17,45 -12,69 5,23 19,43 39,57 16,11 35,15 54,14l117 162c-33,126 -63,239 -63,239l358 620c-84,30 -410,147 -410,147l0 84 -46 0 0 71 46 0 0 71 -46 0 0 71 46 0 0 70 -46 0 0 71 46 0 0 71 -46 0 0 71 46 0 0 126c0,0 274,1 308,1 13,13 57,56 90,89 -27,15 -45,44 -45,77 0,50 41,91 91,91 50,0 91,-41 91,-91 0,-36 -22,-68 -53,-82 31,-31 72,-71 93,-93 22,23 65,65 96,97 -27,15 -46,44 -46,78 0,50 41,91 91,91 50,0 91,-41 91,-91 0,-37 -23,-69 -55,-83l191 -190c14,31 46,54 83,54 50,0 91,-41 91,-91 0,-51 -41,-91 -91,-91 -37,0 -68,22 -83,54l-187 -189c30,-15 51,-46 51,-81 0,-50 -41,-91 -91,-91 -50,0 -91,41 -91,91 0,32 17,60 42,76 -33,33 -77,77 -89,89 -18,0 -44,0 -79,0 0,-57 0,-169 0,-212 38,-13 234,-80 351,-120l1 213c0,0 316,1 350,1 11,12 48,48 77,77 -30,15 -51,46 -51,81 0,50 41,91 91,91 50,0 91,-41 91,-91 0,-35 -19,-64 -47,-80 32,-32 75,-75 97,-97 22,22 63,63 94,94 -32,14 -54,46 -54,83 0,50 41,91 91,91 50,0 91,-41 91,-91 0,-36 -21,-66 -50,-81l189 -189c15,29 45,50 81,50 50,0 91,-41 91,-91 0,-50 -41,-91 -91,-91 -35,0 -66,21 -81,50l-187 -187c29,-15 49,-46 49,-80 0,-50 -41,-91 -91,-91 -50,0 -91,41 -91,91 0,33 19,63 46,78 -35,35 -81,81 -94,94 -20,0 -54,0 -93,0 0,-78 0,-525 0,-525l-169 -51c84,-31 167,-61 209,-76 55,27 96,48 107,53 0,40 1,183 1,183 0,0 138,-2 191,-2 1,44 2,148 2,148l332 -3c-4,10 -6,21 -7,32 0,25 9,48 26,65 35,36 92,37 128,2 18,-18 27,-40 27,-65 0,-24 -9,-47 -26,-64 -26,-26 -64,-33 -97,-21l3 -338c0,0 -120,5 -154,6 -19,-31 -282,-461 -312,-513 24,0 143,0 151,0 19,12 166,103 166,103 0,0 72,-118 100,-164 22,13 60,36 89,54 -8,6 -14,13 -20,21 -13,20 -17,44 -12,69 10,48 59,80 108,69 49,-11 80,-59 69,-108 -9,-40 -43,-68 -81,-71zm-2092 -805c-19,4 -38,-8 -42,-27 -4,-19 8,-39 28,-43 19,-4 38,9 42,28 1,3 1,5 1,8 0,16 -12,31 -29,35zm-19 372c-5,8 -13,14 -23,16l0 0c-19,4 -39,-8 -43,-27 -2,-9 0,-19 5,-27 5,-8 13,-14 23,-16 9,-2 19,0 27,5 8,5 14,13 15,23 2,10 0,19 -5,27zm-77 390l0 0c-9,2 -19,1 -27,-5 -8,-5 -14,-13 -16,-23 -2,-9 0,-19 5,-27 5,-8 13,-13 23,-15 9,-2 19,-1 27,4 8,5 14,13 16,23 4,20 -8,39 -28,43zm1023 1749c20,0 36,16 36,36 0,20 -16,36 -36,36 -20,0 -36,-16 -36,-36 0,-20 16,-36 36,-36zm875 -412c20,0 36,16 36,36 0,20 -16,36 -36,36 -20,0 -36,-16 -36,-36 0,-20 16,-36 36,-36zm180 -339c0,-10 4,-19 11,-25 14,-14 37,-13 51,1 7,7 10,16 10,26 0,9 -4,19 -11,25 -14,14 -37,13 -51,-1 -7,-7 -10,-16 -10,-25 0,-1 0,-1 0,-1zm-81 -1475c-4,-19 8,-38 28,-42 9,-2 19,-1 27,4 8,5 14,13 16,23 2,9 0,19 -5,27 -5,8 -13,13 -22,15l0 0c-9,2 -19,1 -27,-5 -8,-5 -14,-13 -16,-23zm-1319 383c18,-31 51,-88 76,-132 22,0 45,0 64,0 -15,26 -44,76 -76,132 -24,0 -50,0 -64,0zm-11 271l274 -474 -240 0c42,-68 127,-209 127,-209 0,0 -83,0 -100,0 41,-68 156,-260 156,-260 0,0 -85,3 -101,4 48,-67 126,-175 141,-195 32,0 371,0 402,0 15,20 101,133 151,199 -9,0 -83,0 -83,0 0,0 104,190 141,257 -15,0 -93,0 -93,0l30 55c-18,32 -129,229 -228,404l-116 -249 -34 60 -275 484c-19,-35 -41,-75 -41,-75 0,0 -62,-1 -111,-1zm534 -142c-61,108 -110,195 -115,204 -20,5 -136,31 -204,47 61,-107 198,-348 239,-420 25,53 63,134 80,170zm-760 2098c-20,0 -36,-16 -36,-36 0,-19 16,-36 36,-36 20,0 36,16 36,36 0,20 -16,36 -36,36zm272 0c-20,0 -36,-16 -36,-36 0,-19 16,-36 36,-36 20,0 36,16 36,36 0,20 -16,36 -36,36zm0 -689c20,0 36,16 36,36 0,20 -16,36 -36,36 -3,0 -5,-1 -7,-2 -16,-3 -29,-17 -29,-35 0,-20 16,-36 36,-36zm602 277c-20,0 -36,-16 -36,-36 0,-20 16,-36 36,-36 20,0 36,16 36,36 0,20 -16,36 -36,36zm272 0c-20,0 -36,-16 -36,-36 0,-20 16,-36 36,-36 20,0 36,16 36,36 0,20 -16,36 -36,36zm1 -690c20,0 36,16 36,36 0,20 -16,36 -36,36 -20,0 -36,-16 -36,-36 0,-20 16,-36 36,-36zm-327 -248c0,61 0,550 0,550l227 0c0,0 63,-63 97,-97 38,38 101,100 138,138 -37,37 -96,97 -134,133 -38,-37 -134,-133 -134,-133 0,0 -100,100 -138,138 -30,-30 -80,-80 -80,-80 0,0 -226,-1 -295,-1 0,-19 0,-56 0,-100l49 0 0 -71 -49 0c0,-24 0,-48 0,-71l49 0 0 -71 -50 0c0,-26 0,-50 0,-70l50 0 0 -71 -43 0 154 -241c59,18 130,39 159,48zm-324 78c0,-53 0,-94 0,-109 13,-5 47,-17 90,-33l-90 142zm-95 -175c0,0 0,469 0,528 -55,19 -441,150 -441,150l0 374 213 0c0,0 59,-59 91,-91 38,38 100,100 137,138 -37,38 -99,99 -137,137 -38,-38 -134,-136 -134,-136 0,0 -99,99 -137,137 -32,-32 -90,-88 -90,-88 0,0 -187,-1 -252,-1 0,-18 0,-56 0,-103l48 0 0 -71 -48 0c0,-23 0,-46 0,-70l48 0 0 -71 -48 0c0,-25 0,-49 0,-71l48 0 0 -71 -48 0c0,-42 0,-75 0,-88 54,-19 456,-162 456,-162 0,0 -148,-252 -185,-316 -2,-3 -3,-5 -5,-8 30,-38 305,-385 402,-508 20,37 43,80 43,80l117 -27c18,9 51,26 92,47l-22 45 64 31 21 -44c20,10 42,21 64,31l-21 43 64 31 21 -43c25,13 49,25 73,37l-436 160zm392 -287l-168 -84 66 -15c0,0 315,-558 380,-673 23,42 33,60 51,93 -17,0 -92,1 -92,1 0,0 92,183 131,262l-144 0 -123 226 0 0 -3 7 -47 86 1 1 -51 97zm383 -188c-48,0 -136,-1 -201,-1 36,-67 75,-138 84,-155 6,0 15,0 26,0 29,49 70,120 91,156zm12 71l249 397c0,0 71,-2 110,-4 -1,55 -1,143 -2,195 -53,1 -142,2 -196,2 0,-44 -2,-149 -2,-149 0,0 -137,2 -191,2 0,-48 -1,-146 -1,-146l-299 -149c20,-37 67,-126 80,-150 23,0 154,1 252,2zm373 -403c0,0 -71,117 -99,163 -40,-25 -108,-67 -108,-67l-119 0c-33,-65 -73,-147 -92,-184 18,-1 97,-2 97,-2l318 0c0,0 43,-69 66,-106 46,29 122,78 166,106 -28,45 -74,121 -102,167 -38,-23 -127,-77 -127,-77zm185 290c-19,4 -39,-8 -43,-27 -1,-3 -1,-5 -1,-8 0,-7 2,-14 6,-19 5,-8 13,-14 22,-16 19,-4 39,8 43,27 4,20 -8,39 -27,43z"/>
  <path class="fil0" d="M4351 3353c-2,-3 -3,-5 -5,-6 -9,-4 -63,10 -129,-22 -76,-37 -107,-109 -78,-169 29,-59 104,-80 187,-40 52,25 73,58 87,65 3,2 7,3 12,4l3 5 -54 31 -4 -6c1,-1 1,-1 1,-2 5,-10 -24,-44 -64,-64 -51,-25 -100,-12 -119,27 -20,42 0,87 52,113 46,23 95,18 98,12 1,-2 1,-4 2,-8l6 -1 10 59 -6 1z"/>
  <path class="fil0" d="M4563 3489l3 -5c6,2 11,2 13,-2 0,0 1,-6 -1,-12l-17 -85 -60 -30 -33 67c-4,7 -3,10 5,16l-3 5 -70 -35 2 -5c9,3 13,1 16,-6l84 -170c4,-8 2,-10 -5,-16l2 -5 141 69c60,29 81,68 63,103 -15,31 -44,41 -89,31l17 82c2,13 8,21 17,32l-2 5 -82 -40zm46 -186l-67 -33 -27 55 69 34c38,19 60,20 71,-1 11,-21 -5,-36 -45,-55z"/>
  <path class="fil0" d="M4914 3673c2,-9 0,-12 -8,-16l-203 -99 2 -5c10,2 13,1 16,-6l83 -171c4,-7 3,-10 -5,-16l2 -5 201 98c8,4 11,4 17,-3l5 3 -27 55 -6 -3c2,-8 0,-12 -8,-15l-141 -69 -22 44 90 44c8,4 11,4 17,-3l6 3 -25 52 -5 -3c2,-9 0,-12 -8,-15l-90 -44 -26 53 144 70c8,4 11,4 17,-3l5 3 -27 55 -5 -3z"/>
  <path class="fil0" d="M5220 3782c-36,7 -69,-6 -112,-26l-110 -54 2 -5c10,2 13,1 16,-7l83 -170c4,-7 3,-10 -5,-16l2 -5 110 54c43,21 73,40 90,72 14,28 14,63 -3,96 -17,34 -44,55 -74,61zm-20 -192l-60 -29 -66 136 60 29c52,25 90,14 111,-30 22,-44 7,-80 -45,-106z"/>
  <path class="fil0" d="M5309 3853l2 -5c10,2 12,1 16,-7l83 -170c4,-7 3,-10 -5,-16l2 -5 70 34 -3 5c-9,-3 -12,-1 -16,6l-83 170c-4,8 -3,10 5,16l-2 5 -70 -34z"/>
  <path class="fil0" d="M5732 3865c2,-8 1,-12 -8,-15l-69 -34 -74 150c-4,8 -3,10 5,16l-3 5 -70 -34 2 -5c10,2 13,1 16,-6l74 -151 -69 -33c-8,-4 -11,-4 -17,3l-6 -3 27 -55 6 3c-2,9 -1,12 8,16l187 91c8,4 11,4 17,-4l5 3 -27 55 -6 -3z"/>
  <path class="fil0" d="M1394 3786l-84 41 33 67c4,7 6,8 16,6l2 5 -70 34 -2 -5c8,-6 9,-9 5,-16l-83 -171c-4,-7 -7,-8 -16,-6l-2 -5 138 -66c60,-29 103,-22 121,14 18,37 -3,77 -56,103zm-61 -76l-64 31 25 52 66 -32c38,-18 53,-35 44,-54 -9,-19 -32,-15 -71,3z"/>
  <path class="fil0" d="M1810 3700c-6,-7 -9,-7 -17,-3l-203 98 -2 -5c8,-6 9,-9 5,-16l-83 -171c-4,-7 -7,-9 -16,-6l-2 -5 201 -97c8,-4 10,-6 8,-16l5 -3 27 55 -5 3c-5,-7 -9,-8 -17,-3l-141 68 22 45 90 -44c8,-4 10,-5 8,-15l6 -3 25 51 -6 3c-5,-7 -9,-7 -17,-3l-90 44 26 53 144 -69c8,-4 10,-6 8,-15l6 -3 27 55 -5 2z"/>
  <path class="fil0" d="M2048 3573l-2 -5c6,-4 8,-8 6,-11 0,-1 -5,-5 -10,-7l-78 -40 -61 30 33 67c4,7 6,8 16,6l2 5 -70 34 -2 -5c8,-6 9,-9 5,-16l-83 -171c-4,-7 -7,-8 -16,-6l-2 -5 141 -68c60,-29 103,-22 121,14 15,30 5,59 -31,89l76 37c12,6 22,7 36,7l2 5 -82 40zm-118 -151l-67 33 27 55 69 -33c38,-18 53,-34 43,-56 -11,-21 -32,-18 -72,1z"/>
  <path class="fil0" d="M2308 3252c-5,-7 -9,-8 -17,-4l-70 34 73 151c4,7 6,8 16,6l2 5 -70 34 -2 -5c8,-6 9,-9 5,-16l-73 -151 -69 33c-8,4 -10,6 -8,15l-6 2 -27 -55 6 -3c5,7 9,8 17,4l188 -91c8,-4 10,-6 8,-16l6 -2 27 55 -6 3z"/>
  <path class="fil0" d="M2566 3326c-76,37 -152,15 -180,-43 -28,-59 1,-130 78,-167 78,-38 152,-16 181,42 28,59 -1,131 -78,168zm-85 -175c-50,24 -68,68 -48,108 20,40 64,53 115,29 50,-25 68,-68 49,-108 -20,-41 -65,-54 -116,-29z"/>
  <path class="fil0" d="M811 3997c-2,-9 -5,-11 -14,-11l-226 0 0 -5c9,-2 12,-4 12,-13l0 -189c0,-8 -2,-11 -12,-13l0 -5 223 0c9,0 11,-1 14,-11l6 0 0 61 -6 0c-2,-8 -5,-10 -14,-10l-157 0 0 50 100 0c9,0 11,-1 14,-10l6 0 0 57 -6 0c-2,-9 -5,-10 -14,-10l-100 0 0 59 160 0c9,0 11,-1 14,-10l6 0 0 61 -6 0z"/>
  <path class="fil0" d="M1038 3986l0 -5c9,-2 12,-5 12,-11 0,-2 -1,-4 -3,-7l-49 -59 -51 59c-2,3 -3,5 -3,7 0,5 4,9 13,11l0 5 -92 0 0 -5c16,-4 23,-13 31,-22l74 -86 -73 -86c-10,-12 -17,-19 -31,-21l0 -5 103 0 0 5c-9,2 -12,5 -12,10 0,2 1,5 3,7l44 52 45 -52c2,-2 3,-5 3,-6 0,-5 -5,-9 -13,-11l0 -5 92 0 0 5c-15,3 -21,10 -31,21l-69 79 79 92c9,10 16,19 31,22l0 5 -103 0z"/>
  <path class="fil0" d="M6106 4051c-2,-8 -5,-10 -14,-10l-226 0 0 -6c9,-2 12,-4 12,-13l0 -190c0,-8 -2,-10 -12,-12l0 -6 223 0c9,0 11,-1 14,-10l6 0 0 61 -6 0c-2,-9 -5,-11 -14,-11l-157 0 0 50 100 0c9,0 11,-1 14,-10l6 0 0 58 -6 0c-2,-9 -5,-10 -14,-10l-100 0 0 59 160 0c9,0 11,-1 14,-10l6 0 0 61 -6 0z"/>
  <path class="fil0" d="M6586 3590c0,0 -822,2 -843,2 -20,-9 -1649,-799 -1649,-799l-492 474 319 318 -1070 0 309 -318 -492 -474c0,0 -1629,789 -1649,799 -21,0 -843,-2 -843,-2l218 608 1 0 0 1 1632 518 447 -652 -208 -143 -313 144 -309 -98 1280 -599 -206 216 -1 606 1335 0 0 -607 -215 -215 1280 599 -309 98 -313 -144 -208 143 447 652 1632 -518 0 -1 1 0 218 -608zm-4330 441c22,15 52,35 85,58 -41,59 -250,361 -314,455 -13,-64 -32,-158 -32,-158 0,0 -186,-61 -300,-98 149,-69 523,-240 561,-258zm-431 94l-390 179c0,0 432,141 478,155 6,27 15,75 26,131 -100,-32 -778,-248 -1193,-379l352 13 419 -196 308 98zm-746 3c-21,-1 -560,-20 -617,-22 -17,-47 -118,-329 -151,-420 113,1 730,2 730,2l10 -5c0,0 1542,-747 1599,-774 37,35 268,257 340,326 -117,54 -1891,884 -1911,894zm2728 -446l-424 170 -421 -170c227,0 626,0 845,0zm-999 10l480 198 -480 196c0,-78 0,-316 0,-395zm156 405l419 -168 416 168c-221,0 -611,0 -835,0zm994 -13l-479 -193 479 -192c0,84 0,306 0,385zm778 461c-82,-119 -250,-361 -314,-455 33,-23 63,-43 85,-58 38,18 412,189 561,258 -114,37 -300,98 -300,98 0,0 -19,93 -32,158zm88 46c11,-55 21,-103 26,-131 46,-15 478,-155 478,-155l-390 -179 308 -98 419 196 352 -13c-415,132 -1093,347 -1193,379zm1478 -484c-57,2 -596,21 -617,22 -20,-9 -1794,-839 -1911,-894 72,-69 303,-291 340,-326 57,27 1609,779 1609,779 0,0 617,-2 730,-2 -33,91 -134,374 -151,420z"/>
  <polygon class="fil0" points="4274,1977 3818,1184 3818,2433 "/>
  <polygon class="fil0" points="2941,1204 2497,1977 2941,2422 "/>
  <path class="fil0" d="M4572 1908c-20,-14 -43,-20 -67,-16 -16,3 -30,9 -42,19l-384 -647c11,9 24,16 38,19 24,5 48,1 68,-12 20,-13 34,-33 40,-57 1,-7 2,-13 2,-20 0,-17 -5,-34 -14,-48 -13,-21 -33,-35 -57,-40 -49,-10 -97,21 -108,70 -3,12 -3,23 -1,35l-233 -392 0 -573 -858 0 0 575 -227 383c1,-9 1,-19 -1,-28 -10,-48 -59,-80 -108,-69 -24,5 -44,19 -57,40 -9,14 -14,31 -14,48 0,7 1,13 2,20 5,24 19,44 40,57 20,13 45,17 68,12 11,-2 22,-7 31,-13l-379 639c-12,-9 -25,-15 -39,-17 -24,-4 -48,2 -68,16 -40,30 -49,86 -20,127l0 0c14,20 35,32 59,36 24,4 48,-2 67,-16 2,-2 4,-3 6,-6l1066 1070 1076 -1071c3,3 5,5 8,7 19,14 43,20 67,16 24,-4 45,-16 59,-36l0 0c29,-41 20,-97 -20,-127zm-471 -722c4,-19 23,-32 43,-27 9,2 17,8 22,16 5,8 7,17 5,26l0 1c-2,9 -8,17 -16,23 -8,5 -18,7 -27,4 -9,-2 -18,-7 -23,-15 -5,-8 -7,-18 -5,-27zm-1432 27c-5,8 -13,14 -23,15 -9,2 -19,1 -27,-4 -8,-5 -14,-13 -16,-23l0 -1c-2,-9 0,-19 5,-26 5,-8 13,-14 23,-16 19,-4 39,8 43,27 2,9 0,19 -5,27zm-412 805c-2,0 -4,-1 -5,-1 0,0 0,0 -1,0 0,0 -1,0 -1,0 -4,-1 -8,-2 -12,-4 -1,-1 -1,-1 -2,-1 -3,-2 -6,-5 -8,-8 0,-1 -1,-1 -1,-1 0,-1 -1,-1 -1,-2 -2,-3 -3,-5 -4,-8 0,-1 0,-1 -1,-2 -1,-3 -2,-6 -2,-9 0,-12 6,-22 15,-29 0,-1 0,-1 1,-1 0,-1 1,-1 1,-1 3,-2 6,-3 10,-4 1,-1 2,-1 3,-1 2,-1 4,-2 7,-2 2,0 3,1 4,1 0,0 1,0 1,0 0,0 1,1 1,1 17,3 30,17 30,35 0,20 -16,36 -36,36zm795 -1173c0,-1 0,-1 0,-1 0,-55 0,-120 0,-186l0 0c0,-139 0,-281 0,-319 78,0 589,0 667,0 0,83 0,638 0,638 0,181 -150,328 -334,328 -184,0 -334,-147 -334,-328 0,0 0,-54 0,-132zm331 2140c0,0 -955,-959 -1003,-1007 20,-33 313,-527 579,-975 14,221 200,397 428,397 228,0 415,-177 428,-399 266,448 560,944 580,978 -48,48 -1011,1007 -1011,1007zm1138 -967c-8,0 -15,-3 -21,-8 0,0 0,0 -1,0 0,-1 0,-1 0,-1 -9,-7 -15,-16 -15,-29 0,-9 4,-16 9,-23l0 0c0,0 0,0 0,0 2,-3 5,-4 7,-7 1,-1 2,-2 3,-2 2,-1 5,-2 7,-3 1,-1 2,-1 3,-1 1,0 2,0 2,0 1,0 2,-1 4,-1 2,0 4,1 6,1 1,0 2,0 4,1 16,4 27,18 27,35 0,20 -16,37 -36,37z"/>
 </g>
</svg>
